HIERARCHY
ROOT Hips
{
    OFFSET   0.000000   0.000000   0.000000
    CHANNELS 6 Xposition Yposition Zposition Zrotation Xrotation Yrotation
    JOINT Chest
    {
        OFFSET   0.000000   8.007240   0.000000
        CHANNELS 3 Zrotation Xrotation Yrotation
        JOINT Chest2
        {
            OFFSET   0.000000  22.077100   0.000000
            CHANNELS 3 Zrotation Xrotation Yrotation
            JOINT Neck
            {
                OFFSET   0.000000  23.254800   0.000000
                CHANNELS 3 Zrotation Xrotation Yrotation
                JOINT Head
                {
                    OFFSET   0.000000  14.370000   1.956600
                    CHANNELS 3 Zrotation Xrotation Yrotation
                    End Site
                    {
                        OFFSET   0.000000  19.566000   0.000000
                    }
                }
            }
            JOINT LeftCollar
            {
                OFFSET   3.911900  19.017000  -0.467064
                CHANNELS 3 Zrotation Xrotation Yrotation
                JOINT LeftShoulder
                {
                    OFFSET  10.383700   0.000000   0.000000
                    CHANNELS 3 Zrotation Xrotation Yrotation
                    JOINT LeftElbow
                    {
                        OFFSET  26.662100   0.001476   0.000517
                        CHANNELS 3 Zrotation Xrotation Yrotation
                        JOINT LeftWrist
                        {
                            OFFSET  28.869000  -0.000025  -0.000106
                            CHANNELS 3 Zrotation Xrotation Yrotation
                            JOINT LeftFinger0
                            {
                                OFFSET   2.044660  -2.323460   3.252850
                                CHANNELS 3 Zrotation Xrotation Yrotation
                                JOINT LeftFinger01
                                {
                                    OFFSET   3.088130   0.000000   0.000000
                                    CHANNELS 3 Zrotation Xrotation Yrotation
                                    JOINT LeftFinger02
                                    {
                                        OFFSET   2.639460   0.000000   0.000000
                                        CHANNELS 3 Zrotation Xrotation Yrotation
                                        End Site
                                        {
                                            OFFSET   2.582190   0.000000   0.000000
                                        }
                                    }
                                }
                            }
                            JOINT LeftFinger1
                            {
                                OFFSET   8.364480   0.000000   3.252850
                                CHANNELS 3 Zrotation Xrotation Yrotation
                                JOINT LeftFinger11
                                {
                                    OFFSET   4.646930   0.000000   0.000000
                                    CHANNELS 3 Zrotation Xrotation Yrotation
                                    JOINT LeftFinger12
                                    {
                                        OFFSET   2.323460   0.000000   0.000000
                                        CHANNELS 3 Zrotation Xrotation Yrotation
                                        End Site
                                        {
                                            OFFSET   2.273050   0.000000   0.000000
                                        }
                                    }
                                }
                            }
                            JOINT LeftFinger2
                            {
                                OFFSET   8.364490   0.000015   1.078090
                                CHANNELS 3 Zrotation Xrotation Yrotation
                                JOINT LeftFinger21
                                {
                                    OFFSET   5.111620   0.000000   0.000000
                                    CHANNELS 3 Zrotation Xrotation Yrotation
                                    JOINT LeftFinger22
                                    {
                                        OFFSET   2.788160   0.000016   0.000000
                                        CHANNELS 3 Zrotation Xrotation Yrotation
                                        End Site
                                        {
                                            OFFSET   2.727660   0.000000   0.000000
                                        }
                                    }
                                }
                            }
                            JOINT LeftFinger3
                            {
                                OFFSET   7.899780   0.000017  -1.078090
                                CHANNELS 3 Zrotation Xrotation Yrotation
                                JOINT LeftFinger31
                                {
                                    OFFSET   4.646930   0.000000   0.000000
                                    CHANNELS 3 Zrotation Xrotation Yrotation
                                    JOINT LeftFinger32
                                    {
                                        OFFSET   2.323470   0.000000   0.000000
                                        CHANNELS 3 Zrotation Xrotation Yrotation
                                        End Site
                                        {
                                            OFFSET   2.273050   0.000000   0.000000
                                        }
                                    }
                                }
                            }
                            JOINT LeftFinger4
                            {
                                OFFSET   7.435090   0.000000  -3.252850
                                CHANNELS 3 Zrotation Xrotation Yrotation
                                JOINT LeftFinger41
                                {
                                    OFFSET   3.717550   0.000000   0.000000
                                    CHANNELS 3 Zrotation Xrotation Yrotation
                                    JOINT LeftFinger42
                                    {
                                        OFFSET   1.858770   0.000000   0.000000
                                        CHANNELS 3 Zrotation Xrotation Yrotation
                                        End Site
                                        {
                                            OFFSET   1.818440   0.000000   0.000000
                                        }
                                    }
                                }
                            }
                        }
                    }
                }
            }
            JOINT RightCollar
            {
                OFFSET  -3.911900  19.017000  -0.467063
                CHANNELS 3 Zrotation Xrotation Yrotation
                JOINT RightShoulder
                {
                    OFFSET -10.383700   0.000019   0.000000
                    CHANNELS 3 Zrotation Xrotation Yrotation
                    JOINT RightElbow
                    {
                        OFFSET -26.662100   0.001175   0.000102
                        CHANNELS 3 Zrotation Xrotation Yrotation
                        JOINT RightWrist
                        {
                            OFFSET -28.869000   0.000016  -0.000079
                            CHANNELS 3 Zrotation Xrotation Yrotation
                            JOINT RightFinger0
                            {
                                OFFSET  -2.044660  -2.323490   3.252850
                                CHANNELS 3 Zrotation Xrotation Yrotation
                                JOINT RightFinger01
                                {
                                    OFFSET  -3.088140   0.000000   0.000000
                                    CHANNELS 3 Zrotation Xrotation Yrotation
                                    JOINT RightFinger02
                                    {
                                        OFFSET  -2.639460   0.000000   0.000000
                                        CHANNELS 3 Zrotation Xrotation Yrotation
                                        End Site
                                        {
                                            OFFSET  -2.582190   0.000000   0.000000
                                        }
                                    }
                                }
                            }
                            JOINT RightFinger1
                            {
                                OFFSET  -8.364480   0.000000   3.252850
                                CHANNELS 3 Zrotation Xrotation Yrotation
                                JOINT RightFinger11
                                {
                                    OFFSET  -4.646930   0.000000   0.000000
                                    CHANNELS 3 Zrotation Xrotation Yrotation
                                    JOINT RightFinger12
                                    {
                                        OFFSET  -2.323470   0.000000   0.000000
                                        CHANNELS 3 Zrotation Xrotation Yrotation
                                        End Site
                                        {
                                            OFFSET  -2.273050   0.000000   0.000000
                                        }
                                    }
                                }
                            }
                            JOINT RightFinger2
                            {
                                OFFSET  -8.364480   0.000000   1.078090
                                CHANNELS 3 Zrotation Xrotation Yrotation
                                JOINT RightFinger21
                                {
                                    OFFSET  -5.111620   0.000000   0.000000
                                    CHANNELS 3 Zrotation Xrotation Yrotation
                                    JOINT RightFinger22
                                    {
                                        OFFSET  -2.788160   0.000000   0.000000
                                        CHANNELS 3 Zrotation Xrotation Yrotation
                                        End Site
                                        {
                                            OFFSET  -2.727660   0.000000   0.000000
                                        }
                                    }
                                }
                            }
                            JOINT RightFinger3
                            {
                                OFFSET  -7.899780   0.000000  -1.078090
                                CHANNELS 3 Zrotation Xrotation Yrotation
                                JOINT RightFinger31
                                {
                                    OFFSET  -4.646930   0.000000   0.000000
                                    CHANNELS 3 Zrotation Xrotation Yrotation
                                    JOINT RightFinger32
                                    {
                                        OFFSET  -2.323470   0.000000   0.000000
                                        CHANNELS 3 Zrotation Xrotation Yrotation
                                        End Site
                                        {
                                            OFFSET  -2.273050   0.000000   0.000000
                                        }
                                    }
                                }
                            }
                            JOINT RightFinger4
                            {
                                OFFSET  -7.435090   0.000000  -3.252850
                                CHANNELS 3 Zrotation Xrotation Yrotation
                                JOINT RightFinger41
                                {
                                    OFFSET  -3.717550   0.000000   0.000000
                                    CHANNELS 3 Zrotation Xrotation Yrotation
                                    JOINT RightFinger42
                                    {
                                        OFFSET  -1.858770   0.000000   0.000000
                                        CHANNELS 3 Zrotation Xrotation Yrotation
                                        End Site
                                        {
                                            OFFSET  -1.818440   0.000000   0.000000
                                        }
                                    }
                                }
                            }
                        }
                    }
                }
            }
        }
    }
    JOINT LeftHip
    {
        OFFSET   9.783040   0.000000   0.000000
        CHANNELS 3 Zrotation Xrotation Yrotation
        JOINT LeftKnee
        {
            OFFSET   0.000032 -41.789100  -0.002222
            CHANNELS 3 Zrotation Xrotation Yrotation
            JOINT LeftAnkle
            {
                OFFSET   0.000087 -41.133200  -0.000135
                CHANNELS 3 Zrotation Xrotation Yrotation
                JOINT LeftToe
                {
                    OFFSET   0.000000  -6.358960  14.674500
                    CHANNELS 3 Zrotation Xrotation Yrotation
                    End Site
                    {
                        OFFSET   0.000000   0.000000   3.913200
                    }
                }
            }
        }
    }
    JOINT RightHip
    {
        OFFSET  -9.783040   0.000000   0.000000
        CHANNELS 3 Zrotation Xrotation Yrotation
        JOINT RightKnee
        {
            OFFSET   0.000047 -41.789100  -0.000896
            CHANNELS 3 Zrotation Xrotation Yrotation
            JOINT RightAnkle
            {
                OFFSET  -0.000117 -41.133300  -0.000248
                CHANNELS 3 Zrotation Xrotation Yrotation
                JOINT RightToe
                {
                    OFFSET   0.000000  -6.358970  14.674500
                    CHANNELS 3 Zrotation Xrotation Yrotation
                    End Site
                    {
                        OFFSET   0.000000   0.000000   3.913200
                    }
                }
            }
        }
    }
}
MOTION
Frames: 6
Frame Time:   0.016667
 -5.859420  88.955700  -0.704927  -0.907952 -18.351500   0.804090   1.100200   4.997820  -0.966329   2.298400   9.975330  -2.040790   1.707810   2.055600  -0.058442   2.814670   4.157220   9.153950  10.164200  -9.964700   0.972841 -38.769000 -44.511000 -110.486000   6.543720  -2.538130  -5.305940  29.075700  19.068200  -9.235510  42.567400  28.991200 -58.787000 -22.856600   0.010185   0.004384  -6.428310   0.006919  -0.000901  -5.466280   0.133885  -1.428260  -4.474040   0.001819   0.003812  -3.131830   0.003257  -0.001789  -5.438790   0.132967  -1.435580  -5.440740  -0.001343  -0.000336  -3.623540  -0.002714   0.000090  -2.104180   0.019422  -0.455665  -2.103910   0.009351  -0.001715  -1.401200  -0.002837  -0.001328  -2.808440   0.021746  -0.224142  -4.211510   0.009895   0.000251  -2.804860   0.006589   0.001902 -12.009500 -15.060800   4.197890   9.584950 -38.292500  81.020300 -11.007000  15.141700   3.885890 -30.989400  27.291100  12.123800 -49.526000  36.365900  64.390600  20.405600   0.001669  -0.000591   5.202760  -0.000372   0.000485   6.895510  -0.145147  -1.164310   5.642310   0.007716  -0.007600   3.949620  -0.000085   0.000287   5.332570  -0.222356  -2.398310   5.337330   0.007808  -0.008248   3.554660  -0.000767   0.000645   5.248720  -0.407769  -4.438870   5.264680  -0.005962  -0.007172   3.506270   0.008359   0.001146   5.331280  -0.414055  -4.437780   8.021210  -0.002414  -0.003140   5.342090  -0.010177   0.001041   3.891800  14.648100   1.512910   6.053550  11.142000   2.534460  -9.885740  -7.371260  -1.697360  -0.000000   0.000000   0.000000   5.975850  15.460700  -1.279480  -0.205928   8.161580  -8.791010  -5.011560  -6.676800  -8.574950  -0.000000   0.000000  -0.000000
 -5.803590  88.964000  -0.773168  -0.941379 -18.267800   0.728507   1.094180   5.007340  -0.960375   2.285960   9.994580  -2.028640   1.690780   2.076940  -0.058129   2.787620   4.200340   9.180630  10.150200  -9.853590   1.082320 -38.535700 -44.548600 -110.304000   6.582490  -2.543390  -5.312200  29.071800  19.001300  -9.201080  42.546500  29.058600 -59.153000 -22.855600   0.010302   0.004358  -6.427820   0.006914  -0.000882  -5.979360   0.176911  -1.737770  -4.894820   0.001862   0.003949  -3.426370   0.003379  -0.001800  -5.844130   0.173689  -1.747380  -5.847240  -0.001330  -0.000276  -3.894260  -0.002738   0.000188  -2.567000   0.019724  -0.389664  -2.566420   0.009576  -0.001700  -1.709240  -0.002781  -0.001297  -3.790610  -0.013152   0.350305  -5.683390   0.018300   0.000232  -3.785140   0.012166   0.001906 -12.075600 -15.117900   4.141010   9.504840 -38.093500  80.788100 -11.059200  14.926100   3.891620 -31.211600  27.357200  12.266800 -49.120300  36.178600  64.118000  20.686300   0.001678  -0.000595   5.343120  -0.000388   0.000494   7.273370  -0.150237  -1.135770   5.950000   0.007845  -0.007735   4.164980   0.000000   0.000259   5.585040  -0.244335  -2.497230   5.589990   0.007839  -0.008379   3.722930  -0.000688   0.000648   5.602760  -0.463292  -4.711980   5.622050  -0.006144  -0.007302   3.744280   0.008404   0.001146   5.590290  -0.462081  -4.711030   8.414330  -0.002625  -0.003313   5.603910  -0.010302   0.001094   3.866610  14.582800   1.530370   6.029610  11.050000   2.571960  -9.857670  -7.294320  -1.650640  -0.000000   0.000000  -0.000000   5.929820  15.348600  -1.263320  -0.197341   8.110930  -8.746240  -4.953020  -6.592230  -8.528410  -0.000000   0.000000   0.000000
 -5.744930  88.970200  -0.847836  -0.972424 -18.153700   0.662676   1.084860   5.006790  -0.971030   2.267950   9.993370  -2.049430   1.677820   2.111440  -0.057786   2.766800   4.270530   9.265660  10.113600  -9.733780   1.206650 -38.294700 -44.620400 -110.115000   6.582100  -2.550960  -5.326610  29.049900  19.055900  -9.264290  42.528900  29.230600 -59.543100 -22.954700   0.010416   0.004391  -6.477350   0.006921  -0.000865  -6.621140   0.247185  -2.099960  -5.421150   0.001899   0.004102  -3.794820   0.003492  -0.001788  -6.476410   0.249310  -2.137120  -6.481400  -0.001328  -0.000228  -4.316620  -0.002761   0.000259  -3.253400   0.018902  -0.276634  -3.253110   0.009753  -0.001689  -2.166570  -0.002732  -0.001258  -5.026920  -0.095022   1.176720  -7.539800   0.023926   0.000209  -5.021530   0.015468   0.001915 -12.088500 -15.133000   4.179010   9.552450 -37.875900  80.575000 -11.201700  14.654600   4.023450 -31.265600  27.352000  12.232700 -48.607200  35.844600  63.687100  20.962600   0.001683  -0.000576   5.481270  -0.000405   0.000502   7.950200  -0.115939  -0.833921   6.501240   0.007965  -0.007862   4.550860   0.000073   0.000215   5.975290  -0.270993  -2.540800   5.978980   0.007870  -0.008515   3.982010  -0.000606   0.000650   6.151280  -0.538109  -4.951620   6.172850  -0.006332  -0.007439   4.111110   0.008442   0.001143   5.972890  -0.527112  -4.952890   8.991420  -0.002732  -0.005873   5.988260  -0.010437   0.001151   3.842940  14.483900   1.535820   6.003590  10.968800   2.604950  -9.823020  -7.227090  -1.596730  -0.000000   0.000000  -0.000000   5.876260  15.198700  -1.264110  -0.182378   8.075580  -8.699390  -4.903500  -6.522440  -8.472460   0.000000   0.000000   0.000000
 -5.683760  88.975600  -0.917764  -1.000280 -18.036300   0.609521   1.076570   5.002990  -1.000390   2.253970   9.985390  -2.107470   1.660650   2.159000  -0.057432   2.738980   4.367260   9.381700  10.068400  -9.561160   1.348950 -38.021000 -44.713800 -109.864000   6.578450  -2.578310  -5.371890  29.035500  19.109300  -9.349910  42.462900  29.381700 -59.887000 -23.164200   0.010516   0.004479  -6.582060   0.006928  -0.000848  -7.530450   0.326503  -2.408320  -6.166970   0.001932   0.004261  -4.316900   0.003601  -0.001773  -7.432880   0.323901  -2.376380  -7.440060  -0.001326  -0.000181  -4.955090  -0.002784   0.000328  -4.174620   0.013141  -0.028770  -4.174690   0.010038  -0.001677  -2.780350  -0.002685  -0.001218  -6.427840  -0.230917   2.130970  -9.646860   0.026727   0.000185  -6.424820   0.016990   0.001928 -12.072300 -15.133800   4.260840   9.655770 -37.669700  80.367700 -11.437900  14.274800   4.336210 -31.216000  27.306000  12.096100 -48.290300  35.613600  63.399700  21.188800   0.001685  -0.000556   5.594420  -0.000423   0.000510   8.739100  -0.046495  -0.337504   7.144290   0.008079  -0.007985   5.001000   0.000144   0.000174   6.425090  -0.287924  -2.555870   6.426980   0.007896  -0.008653   4.280390  -0.000524   0.000651   6.736810  -0.602270  -5.088730   6.759520  -0.006518  -0.007579   4.501820   0.008472   0.001139   6.364320  -0.569051  -5.091740   9.578360  -0.003056  -0.009726   6.379170  -0.010574   0.001206   3.816850  14.379900   1.536350   5.979750  10.893300   2.635390  -9.782190  -7.164230  -1.544460   0.000000   0.000000   0.000000   5.820580  15.045200  -1.269160  -0.165597   8.046770  -8.671610  -4.858600  -6.462090  -8.404540   0.000000   0.000000   0.000000
 -5.620920  88.981300  -0.969760  -1.021000 -17.948000   0.579493   1.071290   4.985690  -1.054120   2.246980   9.949790  -2.214630   1.631020   2.224550  -0.057088   2.691820   4.500210   9.532430  10.037800  -9.278000   1.538760 -37.709300 -44.835900 -109.509000   6.582030  -2.713640  -5.450920  29.073500  19.079600  -9.377770  42.201700  29.423800 -60.051000 -23.447200   0.010593   0.004634  -6.723550   0.006929  -0.000830  -8.900020   0.412401  -2.525850  -7.289670   0.001970   0.004421  -5.102800   0.003711  -0.001770  -8.929470   0.366139  -2.319170  -8.937690  -0.001319  -0.000127  -5.952490  -0.002804   0.000408  -5.399050  -0.026127   0.462400  -5.400670   0.010805  -0.001661  -3.596840  -0.002635  -0.001185  -7.957990  -0.446546   3.152140 -11.953100   0.019978   0.000160  -7.960750   0.012360   0.001949 -12.031800 -14.967000   4.396100   9.782340 -37.539300  80.178100 -11.754400  13.699900   4.798240 -31.013000  27.061800  11.808600 -48.448200  35.860900  63.693600  21.241400   0.001685  -0.000569   5.620750  -0.000438   0.000518   9.498200   0.035037   0.206854   7.764720   0.008188  -0.008139   5.435290   0.000220   0.000154   6.866060  -0.282812  -2.371010   6.865450   0.007915  -0.008823   4.572420  -0.000448   0.000645   7.188970  -0.623260  -4.957410   7.209340  -0.006735  -0.007753   4.801410   0.008500   0.001138   6.573850  -0.569116  -4.963930   9.887500  -0.008851  -0.013111   6.585070  -0.010736   0.001251   3.784120  14.302300   1.526340   5.962380  10.821700   2.665540  -9.733410  -7.101430  -1.500000  -0.000000   0.000000   0.000000   5.769630  14.928100  -1.283820  -0.150806   8.015840  -8.690900  -4.817690  -6.407980  -8.307330   0.000000   0.000000  -0.000000
 -5.554280  88.986900  -1.014430  -1.041570 -17.862300   0.557725   1.070370   4.954790  -1.109980   2.249940   9.886820  -2.326150   1.590840   2.296720  -0.056737   2.625340   4.646590   9.675440   9.977310  -8.921090   1.710170 -37.333800 -44.957900 -109.044000   6.691040  -2.885950  -5.633090  29.074700  18.882300  -9.373690  42.050400  29.356000 -60.184600 -23.738800   0.010655   0.004793  -6.869350   0.006929  -0.000810 -10.575800   0.470451  -2.542760  -8.662050   0.001992   0.004582  -6.063460   0.003817  -0.001768 -10.698900   0.382344  -2.075420 -10.706700  -0.001309  -0.000067  -7.130630  -0.002823   0.000493  -6.827330  -0.135282   1.163370  -6.830460   0.011349  -0.001639  -4.549070  -0.002587  -0.001151  -9.481800  -0.683881   4.075500 -14.258400   0.009402   0.000137  -9.496030   0.005291   0.001963 -11.994000 -14.684600   4.484760   9.890150 -37.381300  79.942800 -12.160700  12.994200   5.431350 -30.633600  26.606200  11.405700 -48.609300  36.106000  63.991400  21.302100   0.001684  -0.000589   5.651050  -0.000453   0.000524  10.245100   0.130831   0.763142   8.376810   0.008291  -0.008231   5.863750   0.000298   0.000129   7.342310  -0.261222  -2.004080   7.339020   0.007923  -0.008924   4.887820  -0.000373   0.000635   7.634040  -0.626532  -4.640310   7.651170  -0.006862  -0.007857   5.095680   0.008516   0.001138   6.878390  -0.569049  -4.650910  10.339900  -0.014323  -0.015032   6.886370  -0.010831   0.001294   3.749910  14.229200   1.516370   5.950250  10.750300   2.690730  -9.678910  -7.042160  -1.463660  -0.000000   0.000000   0.000000   5.720110  14.817500  -1.294250  -0.135964   7.986690  -8.720550  -4.776740  -6.359260  -8.212690   0.000000   0.000000   0.000000
